<?xml version="1.0" encoding="UTF-8"?>
<svg id="Capa_2" xmlns="http://www.w3.org/2000/svg" viewBox="0 0 401.91 218.83">
  <defs>
    <style>
      .cls-1 {
        font-family: Poppins-Light, Poppins;
        font-size: 23.78px;
        font-weight: 300;
      }

      .cls-1, .cls-2 {
        fill: #cbad8e;
      }

      .cls-3 {
        fill: none;
        stroke: #b3662f;
        stroke-miterlimit: 10;
        stroke-width: 2px;
      }

      .cls-4 {
        fill: #b3662f;
      }
    </style>
  </defs>
  <g id="Capa_1-2" data-name="Capa_1">
    <g>
      <line class="cls-3" x1="0" y1="86.23" x2="152.67" y2="86.28"/>
      <line class="cls-3" x1="251.44" y1="86.21" x2="401.91" y2="86.44"/>
      <path class="cls-4" d="M62.13,127.45c0-4.12-.54-7.02-1.62-8.71-1.08-1.69-3.14-2.53-6.18-2.53-4.05,0-7.65,1.69-10.79,5.07-3.14,3.38-4.71,6.42-4.71,9.12v36.07h-7.09v-39.01c0-4.12-.54-7.02-1.62-8.71-1.08-1.69-3.38-2.53-6.89-2.53s-6.84,1.62-9.98,4.86c-3.14,3.24-4.85,6.25-5.12,9.02v36.38H1.02v-50.66h7.09s-.13,9.53-.13,9.53c1.67-2.72,3.55-5.33,6.19-7.18,2.74-1.91,6.33-2.76,9.64-2.76,3.58,0,6.43.32,8.56.96,2.13.64,3.63,1.64,4.51,2.99.88,1.35,1.42,2.53,1.62,3.55s.18.51.18,2.34c3.13-5.76,8.34-9.84,15.12-9.84,3.24,0,5.84.27,7.8.81,1.96.54,3.43,1.15,4.41,1.82.98.68,1.72,1.66,2.23,2.94.51,1.28.79,2.33.86,3.14.07.81.1,1.96.1,3.45v31.72c0,1.96.39,3.46,1.17,4.51.78,1.05,1.57,1.61,2.38,1.67l1.12.2h3.14v.81h-6.18c-2.77,0-4.88-.61-6.33-1.82-1.45-1.22-2.21-2.43-2.28-3.65l-.1-1.72v-31.82Z"/>
      <path class="cls-4" d="M257.96,166.67c-4.59,0-7.74-.88-9.42-2.64-1.55-1.48-2.33-2.77-2.33-3.85v-2.13c-3.31,6.01-8.61,9.02-15.91,9.02-8.51,0-13.34-3.85-14.49-11.55-.14-.81-.2-1.64-.2-2.48s.13-1.77.4-2.79c.27-1.01,1.05-2.13,2.33-3.34,2.57-2.43,8.21-3.92,16.92-4.46,2.16-.2,4.16-.3,5.98-.3s3.48.07,4.97.2v-10.22c0-4.12,1.19-10.55-2.85-13.08-.11-.07-.22-.13-.33-.19-1.51-.81-3.29-.93-5.01-.94-6.21-.02-13.37,1.09-18.86,4.19l-.62-2.35c6.01-2.77,12.12-4.15,18.34-4.15,6.96,0,11.55,1.25,13.78,3.75,1.76,1.96,2.63,4.02,2.63,6.18v33.94c0,1.96.39,3.46,1.17,4.51.78,1.05,1.57,1.61,2.38,1.67l1.11.2h3.14v.81h-3.14ZM232.02,165.15c3.58,0,6.81-1.23,9.68-3.7,2.87-2.46,4.41-4.85,4.61-7.14l-.1-10.61c-1.82-.13-3.67-.2-5.52-.2s-3.7.1-5.52.3c-5.13.61-8.48,1.76-10.03,3.45-1.56,1.69-2.33,3.49-2.33,6.46,0,.54.03,1.15.1,1.82.61,7.16,3.71,9.62,9.12,9.62Z"/>
      <path class="cls-4" d="M123.71,166.53c-4.59,0-7.74-.88-9.42-2.64-1.55-1.48-2.33-2.77-2.33-3.85v-2.13c-3.31,6.01-8.61,9.02-15.91,9.02-8.51,0-13.34-3.85-14.49-11.55-.14-.81-.2-1.64-.2-2.48s.13-1.77.4-2.79c.27-1.01,1.05-2.13,2.33-3.34,2.57-2.43,8.21-3.92,16.92-4.46,2.16-.2,4.16-.3,5.98-.3s3.48.07,4.97.2v-10.22c0-4.12,1.19-10.55-2.85-13.08-.11-.07-.22-.13-.33-.19-1.51-.81-3.29-.93-5.01-.94-6.21-.02-13.37,1.09-18.86,4.19l-.62-2.35c6.01-2.77,12.12-4.15,18.34-4.15,6.96,0,11.55,1.25,13.78,3.75,1.76,1.96,2.63,4.02,2.63,6.18v33.94c0,1.96.39,3.46,1.17,4.51.78,1.05,1.57,1.61,2.38,1.67l1.11.2h3.14v.81h-3.14ZM97.77,165.01c3.58,0,6.81-1.23,9.68-3.7,2.87-2.46,4.41-4.85,4.61-7.14l-.1-10.61c-1.82-.13-3.67-.2-5.52-.2s-3.7.1-5.52.3c-5.13.61-8.48,1.76-10.03,3.45-1.56,1.69-2.33,3.49-2.33,6.46,0,.54.03,1.15.1,1.82.61,7.16,3.71,9.62,9.12,9.62Z"/>
      <path class="cls-4" d="M398.31,166.81c-4.59,0-7.74-.88-9.42-2.64-1.55-1.48-2.33-2.77-2.33-3.85v-2.13c-3.31,6.01-8.61,9.02-15.91,9.02-8.51,0-13.34-3.85-14.49-11.55-.14-.81-.2-1.64-.2-2.48s.13-1.77.4-2.79c.27-1.01,1.05-2.13,2.33-3.34,2.57-2.43,8.21-3.92,16.92-4.46,2.16-.2,4.16-.3,5.98-.3s3.48.07,4.97.2v-10.22c0-4.12,1.19-10.55-2.85-13.08-.11-.07-.22-.13-.33-.19-1.51-.81-3.29-.93-5.01-.94-6.21-.02-13.37,1.09-18.86,4.19l-.62-2.35c6.01-2.77,12.12-4.15,18.34-4.15,6.96,0,11.55,1.25,13.78,3.75,1.76,1.96,2.63,4.02,2.63,6.18v33.94c0,1.96.39,3.46,1.17,4.51.78,1.05,1.57,1.61,2.38,1.67l1.11.2h3.14v.81h-3.14ZM372.36,165.28c3.58,0,6.81-1.23,9.68-3.7,2.87-2.46,4.41-4.85,4.61-7.14l-.1-10.61c-1.82-.13-3.67-.2-5.52-.2s-3.7.1-5.52.3c-5.13.61-8.48,1.76-10.03,3.45-1.56,1.69-2.33,3.49-2.33,6.46,0,.54.03,1.15.1,1.82.61,7.16,3.71,9.62,9.12,9.62Z"/>
      <path class="cls-4" d="M152.47,120.16v-2.13c-3.04,1.22-5.81,3.67-8.31,7.35-2.5,3.68-3.82,7.14-3.95,10.39v30.7h-7.09v-50.66s7.09,0,7.09,0c0,1.98.01,3.96.02,5.94,0,1.51.01,3.02.02,4.52,0,.98-.09,2.02.01,3,.01.11-.01.19.01.28.06-.01.08-.05.11-.1,1.21-2.36,2.51-4.68,4.11-6.8,3-3.97,7.09-7.07,12.23-7.25h.41c1.35,0,2.48.46,3.39,1.37s1.37,2.04,1.37,3.39-.46,2.47-1.37,3.34c-.91.88-2.04,1.32-3.39,1.32s-2.47-.44-3.34-1.32c-.88-.88-1.32-1.99-1.32-3.34Z"/>
      <path class="cls-4" d="M287.83,120.16v-2.13c-3.04,1.22-5.81,3.67-8.31,7.35-2.5,3.68-3.82,7.14-3.95,10.39v30.7h-7.09v-50.66s7.09,0,7.09,0c0,1.98.01,3.96.02,5.94,0,1.51.01,3.02.02,4.52,0,.98-.09,2.02.01,3,.01.11-.01.19.01.28.06-.01.08-.05.11-.1,1.21-2.36,2.51-4.68,4.11-6.8,3-3.97,7.09-7.07,12.23-7.25h.41c1.35,0,2.48.46,3.39,1.37s1.37,2.04,1.37,3.39-.46,2.47-1.37,3.34c-.91.88-2.04,1.32-3.39,1.32s-2.47-.44-3.34-1.32c-.88-.88-1.32-1.99-1.32-3.34Z"/>
      <path class="cls-4" d="M163.45,142.96c0-8.78,2.13-15.57,6.38-20.37,4.26-4.8,10.64-7.19,19.15-7.19,6.28,0,12.67,1.11,19.15,3.34v48.94c-.07,16.08-7.09,24.12-21.08,24.12-7.7,0-14.29-2.5-19.76-7.5l1.2-1.75c5.81,4.86,12.16,7.3,19.05,7.3,9.32,0,13.49-6.62,13.49-22.16v-10.03c-1.28,2.37-3.41,4.46-6.38,6.28-2.97,1.82-6.48,2.74-10.54,2.74-13.78-.34-20.67-8.24-20.67-23.71ZM184.52,165.23c4.53,0,8.25-1.23,11.75-4.78,2.84-2.89,4.58-4.97,4.78-7.33v-33.86c-4.88-2.03-9-3.04-12.37-3.04-6.01,0-10.54,2.35-13.58,7.04-3.04,4.7-4.56,11.26-4.56,19.71,0,15.27,4.85,22.27,13.97,22.27Z"/>
      <path class="cls-4" d="M304.9,104.45c-.81-.81-1.22-1.82-1.22-3.04s.41-2.24,1.22-3.09c.81-.84,1.82-1.27,3.04-1.27s2.24.42,3.09,1.27c.84.85,1.27,1.87,1.27,3.09s-.42,2.23-1.27,3.04c-.85.81-1.87,1.22-3.09,1.22s-2.23-.4-3.04-1.22ZM313.01,166.47c-2.77,0-4.88-.61-6.33-1.82-1.45-1.22-2.21-2.43-2.28-3.65l-.1-1.72v-43.47h7.09v43.47c0,1.96.39,3.46,1.17,4.51.78,1.05,1.54,1.61,2.28,1.67l1.22.2h3.14v.81h-6.18Z"/>
      <path class="cls-4" d="M326.81,118.06v-2.25s2.11,0,2.11,0v-10.13h7.09v10.13h15.5v2.25s-15.49,0-15.49,0v35.44c-.01,4.39.47,7.57,1.45,9.52.98,1.96,3.04,2.94,6.18,2.94s6.33-.64,9.58-1.93l.3.81c-3.38,1.28-7.25,1.93-11.6,1.93s-7.62-.9-9.78-2.69c-2.16-1.79-3.24-5.35-3.24-10.69v-35.34s-2.11,0-2.11,0Z"/>
      <text class="cls-1" transform="translate(335.45 205.42)"><tspan x="0" y="0">DECÓ</tspan></text>
      <line class="cls-3" x1="325.35" y1="203.76" x2=".83" y2="203.76"/>
      <path class="cls-3" d="M159.88,25.66c13.47-7.94,41.57-24.51,41.57-24.51l49.64,28.66-.5,56.43-97.31.08-.45-56.52s2.8-1.65,7.05-4.15Z"/>
      <path class="cls-2" d="M207.29,47.23c23.12-15.23,12.07-26.3-3.13-3.12,5.6-27.16-10.01-27.16-4.41,0-15.2-23.18-26.24-12.11-3.13,3.12-27.09-5.62-27.09,10.05,0,4.42-23.13,15.23-12.08,26.31,3.12,3.13-5.6,27.16,10.01,27.16,4.41,0,15.2,23.18,26.24,12.1,3.12-3.13,27.1,5.62,27.1-10.04,0-4.42Z"/>
    </g>
  </g>
</svg>